<?xml version="1.0" standalone="no"?>
<!DOCTYPE svg PUBLIC "-//W3C//DTD SVG 20010904//EN"
 "http://www.w3.org/TR/2001/REC-SVG-20010904/DTD/svg10.dtd">
<svg version="1.0" xmlns="http://www.w3.org/2000/svg"
 width="700.000000pt" height="700.000000pt" viewBox="0 0 700.000000 700.000000"
 preserveAspectRatio="xMidYMid meet">
<metadata>
Created by potrace 1.14, written by Peter Selinger 2001-2017
</metadata>
<g transform="translate(0.000000,700.000000) scale(0.100000,-0.100000)"
fill="#000000" stroke="none">
<path d="M4170 6400 c-58 -10 -143 -26 -190 -34 -47 -9 -96 -18 -110 -20 -14
-2 -88 -15 -165 -30 -77 -14 -156 -28 -175 -31 -19 -3 -82 -14 -140 -25 -58
-11 -123 -22 -145 -25 -22 -4 -47 -8 -55 -10 -8 -3 -33 -7 -55 -10 -22 -3 -51
-8 -65 -11 -14 -2 -38 -7 -55 -9 -16 -3 -52 -10 -80 -15 -27 -5 -68 -12 -90
-16 -22 -3 -56 -9 -75 -14 -19 -5 -80 -16 -135 -24 -55 -9 -111 -18 -125 -21
-36 -8 -285 -52 -355 -64 -84 -14 -336 -59 -360 -64 -18 -4 -52 -10 -135 -23
-14 -3 -63 -12 -110 -20 -47 -9 -98 -18 -115 -21 -16 -2 -79 -13 -140 -24 -60
-11 -148 -27 -195 -35 -166 -30 -265 -80 -360 -180 -116 -125 -162 -248 -156
-420 2 -56 7 -107 10 -113 4 -6 8 -23 10 -39 2 -15 11 -66 20 -112 8 -47 18
-101 21 -120 3 -19 10 -57 15 -85 5 -27 11 -61 14 -75 2 -14 11 -63 19 -110 9
-47 18 -101 21 -120 3 -19 8 -46 11 -60 3 -14 8 -38 10 -55 3 -16 24 -133 46
-260 23 -126 43 -243 45 -260 3 -16 9 -50 14 -75 5 -25 12 -61 14 -80 5 -35
47 -269 65 -365 5 -27 13 -68 16 -90 8 -47 8 -45 35 -195 11 -63 23 -130 26
-149 3 -18 8 -43 10 -55 2 -11 11 -63 19 -113 9 -51 17 -98 20 -105 2 -7 7
-31 10 -53 3 -22 12 -76 20 -120 8 -44 17 -93 20 -110 3 -16 7 -43 10 -60 3
-16 15 -79 25 -140 34 -188 40 -213 78 -288 37 -75 155 -204 219 -239 l31 -18
0 1018 c0 592 -4 1038 -9 1067 -5 28 -12 64 -15 80 -2 17 -14 84 -25 150 -11
66 -24 140 -29 165 -5 25 -11 59 -14 75 -2 17 -11 68 -20 115 -9 47 -18 99
-21 115 -4 29 -41 238 -49 281 -2 12 -7 37 -10 55 -5 28 -35 198 -51 289 -28
153 -45 262 -40 269 2 5 28 12 57 16 29 4 60 8 68 10 8 2 94 17 190 34 96 17
186 33 200 36 13 2 42 7 65 11 22 3 58 9 80 14 22 5 54 11 70 14 88 15 213 37
235 41 31 6 49 10 170 30 52 9 230 40 395 70 165 29 317 56 337 59 21 3 57 10
80 15 24 5 63 12 88 16 25 3 52 8 60 10 8 2 31 6 50 9 19 3 46 8 60 11 14 3
88 16 165 29 77 14 280 50 452 80 171 31 315 56 320 56 5 0 19 -62 32 -137 12
-76 25 -141 27 -145 2 -4 137 -7 300 -7 l296 0 -6 37 c-3 20 -8 48 -11 62 -4
23 -16 85 -31 165 -42 235 -65 296 -143 395 -49 61 -86 94 -153 135 -128 80
-262 99 -458 65z"/>
<path d="M2508 4944 c-223 -42 -418 -236 -457 -454 -3 -19 -6 -795 -6 -1725 0
-1390 2 -1700 14 -1745 12 -51 66 -163 94 -196 94 -112 189 -180 300 -215 l72
-23 1215 -2 1215 -2 731 730 731 730 -2 1221 -1 1222 -27 74 c-69 194 -220
331 -428 388 -13 4 -780 8 -1704 8 -1333 2 -1694 -1 -1747 -11z m3317 -573 c7
-1 9 -345 8 -1013 -1 -557 -2 -1016 -2 -1019 -1 -3 -260 -5 -577 -5 -503 1
-577 -1 -583 -14 -4 -8 -6 -270 -6 -583 l1 -567 -25 -1 c-34 -1 -1959 -1
-1991 0 l-25 1 0 1598 c0 1256 2 1598 12 1602 10 4 3154 5 3188 1z"/>
</g>
</svg>
